<svg width="49" height="50" viewBox="0 0 49 50" fill="none" xmlns="http://www.w3.org/2000/svg">
<path d="M48.7396 40.7821C46.1209 43.3953 43.0131 45.4671 39.5936 46.8792C36.1742 48.2914 32.5101 49.0161 28.8106 49.0122C25.111 49.0083 21.4485 48.2757 18.032 46.8563C14.6156 45.4369 11.5122 43.3585 8.89901 40.7398C6.28581 38.121 4.21401 35.0132 2.80189 31.5938C1.38976 28.1743 0.664974 24.5103 0.668903 20.8107C0.672836 17.1112 1.40541 13.4486 2.82479 10.0322C4.24418 6.61575 6.32258 3.51235 8.94133 0.899154L19.3084 11.2882C18.0539 12.54 17.0583 14.0266 16.3784 15.6632C15.6985 17.2997 15.3476 19.0541 15.3457 20.8263C15.3438 22.5985 15.691 24.3536 16.3674 25.9916C17.0439 27.6296 18.0363 29.1183 19.2881 30.3728C20.5399 31.6272 22.0265 32.6228 23.663 33.3027C25.2996 33.9826 27.054 34.3335 28.8262 34.3354C30.5983 34.3373 32.3535 33.9901 33.9915 33.3137C35.6295 32.6372 37.1182 31.6448 38.3726 30.393L48.7396 40.7821Z" fill="#36B2F8"/>
</svg>
