<svg width="57" height="44" viewBox="0 0 57 44" fill="none" xmlns="http://www.w3.org/2000/svg">
<path d="M56.4864 28.1589C54.6552 31.6089 52.1625 34.6644 49.1505 37.1511C46.1385 39.6377 42.6662 41.5067 38.9319 42.6514C35.1976 43.7961 31.2744 44.1941 27.3863 43.8226C23.4982 43.4511 19.7213 42.3175 16.2713 40.4863C12.8213 38.6552 9.76576 36.1625 7.27912 33.1505C4.79249 30.1385 2.92347 26.6662 1.77876 22.9319C0.634055 19.1976 0.236085 15.2743 0.607573 11.3862C0.979064 7.49811 2.11274 3.72124 3.94387 0.271248L18.0835 7.77605C17.2379 9.3692 16.7144 11.1133 16.5428 12.9088C16.3713 14.7042 16.5551 16.5159 17.0837 18.2404C17.6123 19.9648 18.4754 21.5682 19.6237 22.9591C20.7719 24.35 22.1829 25.5011 23.7761 26.3467C25.3692 27.1923 27.1133 27.7158 28.9088 27.8874C30.7043 28.0589 32.5159 27.8751 34.2404 27.3465C35.9648 26.8179 37.5683 25.9548 38.9592 24.8065C40.3501 23.6583 41.5012 22.2473 42.3467 20.6541L56.4864 28.1589Z" fill="#36B2F8"/>
</svg>
