<svg width="242" height="48" viewBox="0 0 242 48" fill="none" xmlns="http://www.w3.org/2000/svg">
<path d="M0.352 47V2.2H15.648C20.896 2.2 25.2053 3.13866 28.576 5.016C31.9893 6.85066 34.5067 9.45333 36.128 12.824C37.792 16.152 38.624 20.0773 38.624 24.6C38.624 29.1227 37.792 33.0693 36.128 36.44C34.5067 39.768 31.9893 42.3707 28.576 44.248C25.2053 46.0827 20.896 47 15.648 47H0.352ZM8.544 39.96H15.264C19.0187 39.96 21.984 39.3627 24.16 38.168C26.336 36.9307 27.8933 35.1813 28.832 32.92C29.7707 30.616 30.24 27.8427 30.24 24.6C30.24 21.4 29.7707 18.648 28.832 16.344C27.8933 14.04 26.336 12.2693 24.16 11.032C21.984 9.79467 19.0187 9.176 15.264 9.176H8.544V39.96ZM61.276 47.768C58.076 47.768 55.2387 47.0853 52.764 45.72C50.2893 44.3547 48.348 42.4347 46.94 39.96C45.532 37.4853 44.828 34.6267 44.828 31.384C44.828 28.0987 45.5107 25.176 46.876 22.616C48.284 20.056 50.204 18.072 52.636 16.664C55.1107 15.2133 58.012 14.488 61.34 14.488C64.4547 14.488 67.2067 15.1707 69.596 16.536C71.9853 17.9013 73.8413 19.7787 75.164 22.168C76.5293 24.5147 77.212 27.1387 77.212 30.04C77.212 30.5093 77.1907 31 77.148 31.512C77.148 32.024 77.1267 32.5573 77.084 33.112H52.956C53.1267 35.5867 53.98 37.528 55.516 38.936C57.0947 40.344 58.9933 41.048 61.212 41.048C62.876 41.048 64.2627 40.6853 65.372 39.96C66.524 39.192 67.3773 38.2107 67.932 37.016H76.252C75.6547 39.0213 74.652 40.856 73.244 42.52C71.8787 44.1413 70.172 45.4213 68.124 46.36C66.1187 47.2987 63.836 47.768 61.276 47.768ZM61.34 21.144C59.3347 21.144 57.564 21.72 56.028 22.872C54.492 23.9813 53.5107 25.688 53.084 27.992H68.892C68.764 25.9013 67.996 24.2373 66.588 23C65.18 21.7627 63.4307 21.144 61.34 21.144ZM95.238 47.768C92.5073 47.768 90.2673 47.3413 88.518 46.488C86.7687 45.592 85.4673 44.4187 84.614 42.968C83.7607 41.5173 83.334 39.9173 83.334 38.168C83.334 35.224 84.486 32.8347 86.79 31C89.094 29.1653 92.55 28.248 97.158 28.248H105.222V27.48C105.222 25.304 104.603 23.704 103.366 22.68C102.129 21.656 100.593 21.144 98.758 21.144C97.094 21.144 95.6433 21.5493 94.406 22.36C93.1687 23.128 92.4007 24.28 92.102 25.816H84.102C84.3153 23.512 85.0833 21.5067 86.406 19.8C87.7713 18.0933 89.5207 16.792 91.654 15.896C93.7873 14.9573 96.1767 14.488 98.822 14.488C103.345 14.488 106.907 15.6187 109.51 17.88C112.113 20.1413 113.414 23.3413 113.414 27.48V47H106.438L105.67 41.88C104.731 43.5867 103.409 44.9947 101.702 46.104C100.038 47.2133 97.8833 47.768 95.238 47.768ZM97.094 41.368C99.4407 41.368 101.254 40.6 102.534 39.064C103.857 37.528 104.689 35.6293 105.03 33.368H98.054C95.878 33.368 94.3207 33.7733 93.382 34.584C92.4433 35.352 91.974 36.312 91.974 37.464C91.974 38.7013 92.4433 39.6613 93.382 40.344C94.3207 41.0267 95.558 41.368 97.094 41.368ZM121.423 47V0.919998H129.615V47H121.423ZM153.602 47.768C150.402 47.768 147.565 47.0853 145.09 45.72C142.615 44.3547 140.674 42.4347 139.266 39.96C137.858 37.4853 137.154 34.6267 137.154 31.384C137.154 28.0987 137.837 25.176 139.202 22.616C140.61 20.056 142.53 18.072 144.962 16.664C147.437 15.2133 150.338 14.488 153.666 14.488C156.781 14.488 159.533 15.1707 161.922 16.536C164.311 17.9013 166.167 19.7787 167.49 22.168C168.855 24.5147 169.538 27.1387 169.538 30.04C169.538 30.5093 169.517 31 169.474 31.512C169.474 32.024 169.453 32.5573 169.41 33.112H145.282C145.453 35.5867 146.306 37.528 147.842 38.936C149.421 40.344 151.319 41.048 153.538 41.048C155.202 41.048 156.589 40.6853 157.698 39.96C158.85 39.192 159.703 38.2107 160.258 37.016H168.578C167.981 39.0213 166.978 40.856 165.57 42.52C164.205 44.1413 162.498 45.4213 160.45 46.36C158.445 47.2987 156.162 47.768 153.602 47.768ZM153.666 21.144C151.661 21.144 149.89 21.72 148.354 22.872C146.818 23.9813 145.837 25.688 145.41 27.992H161.218C161.09 25.9013 160.322 24.2373 158.914 23C157.506 21.7627 155.757 21.144 153.666 21.144ZM176.62 47V15.256H183.916L184.684 21.208C185.836 19.16 187.393 17.5387 189.356 16.344C191.361 15.1067 193.708 14.488 196.396 14.488V23.128H194.092C192.3 23.128 190.7 23.4053 189.292 23.96C187.884 24.5147 186.775 25.4747 185.964 26.84C185.196 28.2053 184.812 30.104 184.812 32.536V47H176.62ZM200.139 47V40.408L216.331 22.04H200.331V15.256H225.675V21.848L209.227 40.216H225.995V47H200.139ZM236.524 47.448C235.031 47.448 233.793 46.9787 232.812 46.04C231.873 45.1013 231.404 43.9707 231.404 42.648C231.404 41.2827 231.873 40.1307 232.812 39.192C233.793 38.2533 235.031 37.784 236.524 37.784C238.017 37.784 239.233 38.2533 240.172 39.192C241.153 40.1307 241.644 41.2827 241.644 42.648C241.644 43.9707 241.153 45.1013 240.172 46.04C239.233 46.9787 238.017 47.448 236.524 47.448Z" fill="#F86338"/>
</svg>
